<?xml version="1.0" standalone="no"?>
<!DOCTYPE svg PUBLIC "-//W3C//DTD SVG 20010904//EN"
 "http://www.w3.org/TR/2001/REC-SVG-20010904/DTD/svg10.dtd">
<svg version="1.0" xmlns="http://www.w3.org/2000/svg"
 width="205.000000pt" height="214.000000pt" viewBox="0 0 205.000000 214.000000"
 preserveAspectRatio="xMidYMid meet">

<g transform="translate(0.000000,214.000000) scale(0.100000,-0.100000)"
fill="#000000" stroke="none">
<path d="M0 1070 l0 -1070 1025 0 1025 0 0 1070 0 1070 -1025 0 -1025 0 0
-1070z m1972 1002 l23 -23 0 -989 0 -989 -23 -23 -23 -23 -907 -3 c-499 -1
-917 0 -930 3 -12 3 -31 14 -42 25 -20 20 -20 38 -20 1004 0 541 3 992 6 1001
17 44 18 45 981 42 l912 -2 23 -23z"/>
<path d="M100 1060 l0 -980 920 0 920 0 0 980 0 980 -920 0 -920 0 0 -980z
m768 388 c-3 -320 -6 -339 -66 -401 -51 -54 -98 -71 -197 -72 -104 0 -170 23
-225 80 l-33 34 48 55 c26 31 51 56 54 56 4 0 20 -13 35 -29 32 -33 96 -55
137 -46 16 4 38 19 49 35 18 26 20 44 20 234 l0 206 -125 0 -125 0 0 70 0 70
216 0 215 0 -3 -292z m277 270 c18 -8 33 -37 63 -117 l40 -106 39 2 c21 1 72
5 113 8 l75 6 18 42 c9 23 17 46 17 50 0 4 -51 7 -114 7 -122 0 -146 4 -146
26 0 11 29 14 155 14 141 0 155 -2 155 -17 0 -28 -47 -136 -65 -149 -8 -6 -48
-14 -88 -18 -128 -12 -167 -18 -167 -27 0 -5 55 -9 123 -9 68 0 127 -3 130 -7
4 -3 2 -12 -4 -20 -9 -9 -44 -13 -133 -13 -143 0 -162 8 -153 61 4 24 -5 62
-30 132 -35 94 -37 97 -73 107 -40 11 -65 32 -53 44 9 9 64 -1 98 -16z m163
-380 c2 -19 -2 -28 -18 -33 -37 -12 -64 27 -38 53 21 21 53 10 56 -20z m160 3
c6 -40 -39 -56 -58 -20 -9 15 -8 24 1 35 18 22 53 13 57 -15z m82 -118 c46
-22 89 -61 109 -100 6 -12 11 -51 11 -86 0 -55 -4 -70 -29 -105 -16 -22 -34
-43 -40 -46 -6 -4 11 -27 38 -54 122 -118 81 -292 -81 -348 -43 -15 -84 -19
-218 -19 l-165 0 0 70 0 70 153 5 c153 5 154 5 178 33 33 39 31 81 -5 118 -29
28 -32 29 -143 31 -175 4 -186 3 -208 -17 -18 -17 -20 -31 -20 -167 l0 -148
-81 0 -81 0 4 173 c3 158 5 175 26 212 44 76 55 79 254 85 159 5 179 7 205 26
21 16 29 31 31 60 6 78 -32 93 -230 94 l-128 0 0 -70 0 -69 -41 -11 c-63 -17
-101 -62 -200 -235 -50 -88 -96 -165 -103 -172 -11 -12 -82 -22 -89 -13 -2 3
-44 74 -93 158 l-89 154 -5 -194 -5 -193 -75 0 -75 0 -3 277 -2 277 56 -34
c53 -32 116 -51 193 -57 31 -3 37 -10 80 -85 26 -46 51 -87 57 -93 10 -10 30
23 144 235 37 68 116 208 137 243 l14 24 237 -4 c218 -3 241 -5 282 -25z"/>
</g>
</svg>
